<svg xmlns="http://www.w3.org/2000/svg" viewBox="0 0 960 1700" font-family="'Segoe UI', system-ui, -apple-system, sans-serif">
  <defs>
    <filter id="shadow">
      <feDropShadow dx="0" dy="2" stdDeviation="3" flood-color="rgba(0,0,0,0.12)"/>
    </filter>
    <filter id="glow">
      <feDropShadow dx="0" dy="0" stdDeviation="4" flood-color="rgba(74,134,200,0.25)"/>
    </filter>
    <linearGradient id="bgGrad" x1="0" y1="0" x2="0" y2="1">
      <stop offset="0%" stop-color="#FAFCFF"/>
      <stop offset="100%" stop-color="#F0F4FA"/>
    </linearGradient>
  </defs>

  <!-- Background -->
  <rect width="960" height="1700" rx="20" fill="url(#bgGrad)"/>
  <rect x="6" y="6" width="948" height="1688" rx="17" fill="none" stroke="#D0DCE8" stroke-width="1"/>

  <!-- ========== TITLE ========== -->
  <text x="480" y="46" text-anchor="middle" fill="#1a1a2e" font-size="24" font-weight="700">Frame Flow Through Pipecat Pipeline</text>
  <text x="480" y="68" text-anchor="middle" fill="#888" font-size="12">Tracing a single user utterance: "hi how are you" &#x2014; from microphone to speaker</text>

  <!-- Legend -->
  <rect x="660" y="82" width="270" height="48" rx="6" fill="white" stroke="#D0DCE8" stroke-width="1"/>
  <rect x="672" y="92" width="12" height="12" rx="2" fill="#4a86c8"/>
  <text x="690" y="102" fill="#555" font-size="10">Frame type (data between processors)</text>
  <rect x="672" y="110" width="12" height="12" rx="2" fill="#E8E8E8" stroke="#bbb" stroke-width="0.5"/>
  <text x="690" y="120" fill="#555" font-size="10">Actual content inside the frame</text>


  <!-- ========================= -->
  <!-- STAGE 0: USER SPEECH      -->
  <!-- ========================= -->
  <text x="480" y="160" text-anchor="middle" fill="#333" font-size="14" font-weight="700">User speaks into microphone</text>
  <text x="480" y="177" text-anchor="middle" fill="#888" font-size="12" font-style="italic">"hi how are you"</text>

  <!-- Waveform visual -->
  <rect x="280" y="188" width="400" height="30" rx="5" fill="white" stroke="#c0d8f0" stroke-width="1"/>
  <g stroke="#4a86c8" stroke-width="2" stroke-linecap="round" fill="none" transform="translate(295, 191)">
    <line x1="0" y1="12" x2="0" y2="12"/>
    <line x1="5" y1="8" x2="5" y2="16"/>
    <line x1="10" y1="3" x2="10" y2="21"/>
    <line x1="15" y1="1" x2="15" y2="23"/>
    <line x1="20" y1="5" x2="20" y2="19"/>
    <line x1="25" y1="10" x2="25" y2="14"/>
    <line x1="40" y1="11" x2="40" y2="13"/>
    <line x1="55" y1="11" x2="55" y2="13"/>
    <line x1="80" y1="9" x2="80" y2="15"/>
    <line x1="85" y1="4" x2="85" y2="20"/>
    <line x1="90" y1="1" x2="90" y2="23"/>
    <line x1="95" y1="3" x2="95" y2="21"/>
    <line x1="100" y1="7" x2="100" y2="17"/>
    <line x1="105" y1="10" x2="105" y2="14"/>
    <line x1="120" y1="11" x2="120" y2="13"/>
    <line x1="135" y1="11" x2="135" y2="13"/>
    <line x1="160" y1="8" x2="160" y2="16"/>
    <line x1="165" y1="4" x2="165" y2="20"/>
    <line x1="170" y1="1" x2="170" y2="23"/>
    <line x1="175" y1="3" x2="175" y2="21"/>
    <line x1="180" y1="6" x2="180" y2="18"/>
    <line x1="190" y1="5" x2="190" y2="19"/>
    <line x1="195" y1="2" x2="195" y2="22"/>
    <line x1="200" y1="1" x2="200" y2="23"/>
    <line x1="205" y1="4" x2="205" y2="20"/>
    <line x1="210" y1="8" x2="210" y2="16"/>
    <line x1="215" y1="10" x2="215" y2="14"/>
    <line x1="240" y1="11" x2="240" y2="13"/>
    <line x1="270" y1="11" x2="270" y2="13"/>
    <line x1="310" y1="11" x2="310" y2="13"/>
    <line x1="350" y1="11" x2="350" y2="13"/>
    <line x1="370" y1="11" x2="370" y2="13"/>
  </g>

  <!-- Down arrow -->
  <line x1="480" y1="222" x2="480" y2="248" stroke="#333" stroke-width="2"/>
  <polygon points="474,244 480,254 486,244" fill="#333"/>


  <!-- ========================= -->
  <!-- STAGE 1: TRANSPORT INPUT  -->
  <!-- ========================= -->
  <rect x="330" y="258" width="300" height="44" rx="8" fill="#B3D4FC" stroke="#7FB3E0" stroke-width="1.5" filter="url(#shadow)"/>
  <text x="480" y="278" text-anchor="middle" fill="#1a3a5c" font-size="13" font-weight="700">1. Transport: Input</text>
  <text x="480" y="294" text-anchor="middle" fill="#3a6a9c" font-size="9">WebSocket &#x2192; receives raw audio bytes from browser</text>

  <!-- Down arrow -->
  <line x1="480" y1="302" x2="480" y2="320" stroke="#333" stroke-width="2"/>
  <polygon points="474,316 480,326 486,316" fill="#333"/>

  <!-- FRAME OUTPUT: 3 InputAudioRawFrames -->
  <rect x="130" y="328" width="700" height="62" rx="8" fill="#EBF3FF" stroke="#B3D4FC" stroke-width="1" filter="url(#glow)"/>
  <text x="148" y="346" fill="#4a86c8" font-size="11" font-weight="700">InputAudioRawFrame</text>
  <text x="326" y="346" fill="#999" font-size="9">(raw PCM audio chunks, 16kHz, 16-bit)</text>

  <!-- Frame 1 -->
  <rect x="148" y="354" width="140" height="28" rx="5" fill="white" stroke="#4a86c8" stroke-width="1"/>
  <g stroke="#4a86c8" stroke-width="1.5" stroke-linecap="round" fill="none" transform="translate(156, 358)">
    <line x1="0" y1="10" x2="0" y2="10"/>
    <line x1="4" y1="6" x2="4" y2="14"/>
    <line x1="8" y1="3" x2="8" y2="17"/>
    <line x1="12" y1="1" x2="12" y2="19"/>
    <line x1="16" y1="4" x2="16" y2="16"/>
    <line x1="20" y1="8" x2="20" y2="12"/>
  </g>
  <text x="196" y="372" fill="#1a3a5c" font-size="10" font-weight="600">"hi"</text>
  <text x="244" y="372" fill="#999" font-size="8">Frame 1</text>

  <!-- Arrow -->
  <line x1="292" y1="368" x2="308" y2="368" stroke="#4a86c8" stroke-width="1.2"/>
  <polygon points="305,364 312,368 305,372" fill="#4a86c8"/>

  <!-- Frame 2 -->
  <rect x="316" y="354" width="155" height="28" rx="5" fill="white" stroke="#4a86c8" stroke-width="1"/>
  <g stroke="#4a86c8" stroke-width="1.5" stroke-linecap="round" fill="none" transform="translate(324, 358)">
    <line x1="0" y1="10" x2="0" y2="10"/>
    <line x1="4" y1="7" x2="4" y2="13"/>
    <line x1="8" y1="3" x2="8" y2="17"/>
    <line x1="12" y1="1" x2="12" y2="19"/>
    <line x1="16" y1="2" x2="16" y2="18"/>
    <line x1="20" y1="5" x2="20" y2="15"/>
    <line x1="24" y1="8" x2="24" y2="12"/>
  </g>
  <text x="370" y="372" fill="#1a3a5c" font-size="10" font-weight="600">"how"</text>
  <text x="422" y="372" fill="#999" font-size="8">Frame 2</text>

  <!-- Arrow -->
  <line x1="475" y1="368" x2="491" y2="368" stroke="#4a86c8" stroke-width="1.2"/>
  <polygon points="488,364 495,368 488,372" fill="#4a86c8"/>

  <!-- Frame 3 -->
  <rect x="499" y="354" width="185" height="28" rx="5" fill="white" stroke="#4a86c8" stroke-width="1"/>
  <g stroke="#4a86c8" stroke-width="1.5" stroke-linecap="round" fill="none" transform="translate(507, 358)">
    <line x1="0" y1="10" x2="0" y2="10"/>
    <line x1="4" y1="6" x2="4" y2="14"/>
    <line x1="8" y1="3" x2="8" y2="17"/>
    <line x1="12" y1="1" x2="12" y2="19"/>
    <line x1="16" y1="3" x2="16" y2="17"/>
    <line x1="20" y1="6" x2="20" y2="14"/>
    <line x1="28" y1="4" x2="28" y2="16"/>
    <line x1="32" y1="2" x2="32" y2="18"/>
    <line x1="36" y1="1" x2="36" y2="19"/>
    <line x1="40" y1="3" x2="40" y2="17"/>
    <line x1="44" y1="7" x2="44" y2="13"/>
  </g>
  <text x="574" y="372" fill="#1a3a5c" font-size="10" font-weight="600">"are you"</text>
  <text x="648" y="372" fill="#999" font-size="8">Frame 3</text>

  <!-- Down arrow -->
  <line x1="480" y1="392" x2="480" y2="418" stroke="#333" stroke-width="2"/>
  <polygon points="474,414 480,424 486,414" fill="#333"/>


  <!-- ========================= -->
  <!-- STAGE 2: SILERO VAD       -->
  <!-- ========================= -->
  <rect x="330" y="428" width="300" height="44" rx="8" fill="#B3D4FC" stroke="#7FB3E0" stroke-width="1.5" filter="url(#shadow)"/>
  <text x="480" y="448" text-anchor="middle" fill="#1a3a5c" font-size="13" font-weight="700">2. Silero VAD</text>
  <text x="480" y="464" text-anchor="middle" fill="#3a6a9c" font-size="9">Voice Activity Detection  |  Filters silent frames  |  stop_secs=0.2</text>

  <!-- Side note -->
  <rect x="660" y="430" width="250" height="40" rx="6" fill="#fff5e0" stroke="#e8d090" stroke-width="1"/>
  <text x="672" y="447" fill="#8a6a20" font-size="9" font-weight="600">Only passes frames with speech</text>
  <text x="672" y="462" fill="#aa8a40" font-size="9">Silence frames are dropped &#x2192; saves bandwidth</text>

  <!-- Down arrow -->
  <line x1="480" y1="472" x2="480" y2="490" stroke="#333" stroke-width="2"/>
  <polygon points="474,486 480,496 486,486" fill="#333"/>

  <!-- FRAME OUTPUT: Same 3 frames (passed through) -->
  <rect x="200" y="498" width="560" height="44" rx="8" fill="#EBF3FF" stroke="#B3D4FC" stroke-width="1"/>
  <text x="218" y="516" fill="#4a86c8" font-size="11" font-weight="700">InputAudioRawFrame</text>
  <rect x="218" y="524" width="80" height="14" rx="3" fill="white" stroke="#4a86c8" stroke-width="0.8"/>
  <text x="258" y="534" text-anchor="middle" fill="#1a3a5c" font-size="8" font-weight="600">"hi"</text>
  <text x="304" y="534" fill="#4a86c8" font-size="9">&#x2192;</text>
  <rect x="318" y="524" width="80" height="14" rx="3" fill="white" stroke="#4a86c8" stroke-width="0.8"/>
  <text x="358" y="534" text-anchor="middle" fill="#1a3a5c" font-size="8" font-weight="600">"how"</text>
  <text x="404" y="534" fill="#4a86c8" font-size="9">&#x2192;</text>
  <rect x="418" y="524" width="100" height="14" rx="3" fill="white" stroke="#4a86c8" stroke-width="0.8"/>
  <text x="468" y="534" text-anchor="middle" fill="#1a3a5c" font-size="8" font-weight="600">"are you"</text>
  <text x="530" y="534" fill="#999" font-size="8">(pass-through, silence dropped)</text>

  <!-- Down arrow -->
  <line x1="480" y1="544" x2="480" y2="570" stroke="#333" stroke-width="2"/>
  <polygon points="474,566 480,576 486,566" fill="#333"/>


  <!-- ========================= -->
  <!-- STAGE 3: SMART TURN       -->
  <!-- ========================= -->
  <rect x="330" y="580" width="300" height="44" rx="8" fill="#D4C4F0" stroke="#B0A0D0" stroke-width="1.5" filter="url(#shadow)"/>
  <text x="480" y="600" text-anchor="middle" fill="#3a2a6c" font-size="13" font-weight="700">3. Smart Turn Analyzer V3</text>
  <text x="480" y="616" text-anchor="middle" fill="#5a4a8c" font-size="9">Detects when user finishes speaking (not just a pause)</text>

  <!-- Side note -->
  <rect x="660" y="582" width="250" height="40" rx="6" fill="#f0ecfa" stroke="#c8b8e8" stroke-width="1"/>
  <text x="672" y="599" fill="#5a4a8c" font-size="9" font-weight="600">After "are you" + 0.2s silence:</text>
  <text x="672" y="614" fill="#7a6aac" font-size="9">Emits UserStoppedSpeakingFrame internally</text>

  <!-- Down arrow -->
  <line x1="480" y1="624" x2="480" y2="642" stroke="#333" stroke-width="2"/>
  <polygon points="474,638 480,648 486,638" fill="#333"/>

  <!-- FRAME OUTPUT: Same frames -->
  <rect x="200" y="650" width="560" height="44" rx="8" fill="#EBF3FF" stroke="#B3D4FC" stroke-width="1"/>
  <text x="218" y="668" fill="#4a86c8" font-size="11" font-weight="700">InputAudioRawFrame</text>
  <rect x="218" y="676" width="80" height="14" rx="3" fill="white" stroke="#4a86c8" stroke-width="0.8"/>
  <text x="258" y="686" text-anchor="middle" fill="#1a3a5c" font-size="8" font-weight="600">"hi"</text>
  <text x="304" y="686" fill="#4a86c8" font-size="9">&#x2192;</text>
  <rect x="318" y="676" width="80" height="14" rx="3" fill="white" stroke="#4a86c8" stroke-width="0.8"/>
  <text x="358" y="686" text-anchor="middle" fill="#1a3a5c" font-size="8" font-weight="600">"how"</text>
  <text x="404" y="686" fill="#4a86c8" font-size="9">&#x2192;</text>
  <rect x="418" y="676" width="100" height="14" rx="3" fill="white" stroke="#4a86c8" stroke-width="0.8"/>
  <text x="468" y="686" text-anchor="middle" fill="#1a3a5c" font-size="8" font-weight="600">"are you"</text>
  <text x="530" y="686" fill="#999" font-size="8">(pass-through)</text>

  <!-- Down arrow -->
  <line x1="480" y1="696" x2="480" y2="722" stroke="#333" stroke-width="2"/>
  <polygon points="474,718 480,728 486,718" fill="#333"/>


  <!-- ========================= -->
  <!-- STAGE 4: STT SERVICE      -->
  <!-- ========================= -->
  <rect x="330" y="732" width="300" height="44" rx="8" fill="#FFD4A0" stroke="#E8B070" stroke-width="1.5" filter="url(#shadow)"/>
  <text x="480" y="752" text-anchor="middle" fill="#5a3a10" font-size="13" font-weight="700">4. STT Service (Deepgram)</text>
  <text x="480" y="768" text-anchor="middle" fill="#7a5a30" font-size="9">Speech-to-Text  |  Diarization enabled  |  Real-time streaming</text>

  <!-- Big transformation arrow -->
  <rect x="415" y="780" width="130" height="22" rx="4" fill="#FFD4A0" stroke="#E8B070" stroke-width="1"/>
  <text x="480" y="795" text-anchor="middle" fill="#5a3a10" font-size="10" font-weight="700">TRANSFORMS</text>

  <!-- Down arrow -->
  <line x1="480" y1="802" x2="480" y2="820" stroke="#333" stroke-width="2"/>
  <polygon points="474,816 480,826 486,816" fill="#333"/>

  <!-- FRAME OUTPUT: TranscriptionFrame -->
  <rect x="170" y="828" width="620" height="64" rx="8" fill="#FFF8F0" stroke="#E8D4A0" stroke-width="1" filter="url(#glow)"/>
  <text x="188" y="846" fill="#D4A050" font-size="11" font-weight="700">TranscriptionFrame</text>
  <text x="350" y="846" fill="#999" font-size="9">(text output from speech recognition)</text>

  <!-- Speech bubble with transcription -->
  <rect x="188" y="854" width="340" height="30" rx="6" fill="white" stroke="#D4A050" stroke-width="1"/>
  <text x="200" y="873" fill="#1a1a2e" font-size="12" font-weight="600">"hi how are you"</text>
  <text x="540" y="873" fill="#999" font-size="9">user_id: "user-1"</text>

  <!-- Down arrow -->
  <line x1="480" y1="894" x2="480" y2="920" stroke="#333" stroke-width="2"/>
  <polygon points="474,916 480,926 486,916" fill="#333"/>


  <!-- ========================= -->
  <!-- STAGE 5: CONTEXT AGG USER -->
  <!-- ========================= -->
  <rect x="330" y="930" width="300" height="44" rx="8" fill="#B8E6C8" stroke="#80C8A0" stroke-width="1.5" filter="url(#shadow)"/>
  <text x="480" y="948" text-anchor="middle" fill="#1a5a30" font-size="13" font-weight="700">5. Context Aggregator: User</text>
  <text x="480" y="964" text-anchor="middle" fill="#2a7a40" font-size="9">Appends user message to OpenAI conversation context</text>

  <!-- Big transformation arrow -->
  <rect x="415" y="978" width="130" height="22" rx="4" fill="#B8E6C8" stroke="#80C8A0" stroke-width="1"/>
  <text x="480" y="993" text-anchor="middle" fill="#1a5a30" font-size="10" font-weight="700">TRANSFORMS</text>

  <!-- Down arrow -->
  <line x1="480" y1="1000" x2="480" y2="1018" stroke="#333" stroke-width="2"/>
  <polygon points="474,1014 480,1024 486,1014" fill="#333"/>

  <!-- FRAME OUTPUT: OpenAILLMContextFrame -->
  <rect x="140" y="1026" width="680" height="80" rx="8" fill="#F0FAF4" stroke="#80C8A0" stroke-width="1" filter="url(#glow)"/>
  <text x="158" y="1044" fill="#2a7a40" font-size="11" font-weight="700">OpenAILLMContextFrame</text>
  <text x="362" y="1044" fill="#999" font-size="9">(full conversation history for LLM)</text>

  <!-- JSON-like context -->
  <rect x="158" y="1052" width="540" height="46" rx="5" fill="white" stroke="#80C8A0" stroke-width="1"/>
  <text x="170" y="1068" fill="#888" font-size="10" font-family="monospace">messages: [</text>
  <text x="186" y="1082" fill="#888" font-size="10" font-family="monospace">{"role": "system", "content": "You are a helpful voice assistant..."},</text>
  <text x="186" y="1094" fill="#2a7a40" font-size="10" font-family="monospace" font-weight="700">{"role": "user", "content": "hi how are you"}</text>

  <!-- Down arrow -->
  <line x1="480" y1="1108" x2="480" y2="1134" stroke="#333" stroke-width="2"/>
  <polygon points="474,1130 480,1140 486,1130" fill="#333"/>


  <!-- ========================= -->
  <!-- STAGE 6: LLM SERVICE      -->
  <!-- ========================= -->
  <rect x="330" y="1144" width="300" height="44" rx="8" fill="#FFE8A0" stroke="#E8D070" stroke-width="1.5" filter="url(#shadow)"/>
  <text x="480" y="1162" text-anchor="middle" fill="#5a4a10" font-size="13" font-weight="700">6. LLM Service (GPT-4o-mini)</text>
  <text x="480" y="1178" text-anchor="middle" fill="#7a6a30" font-size="9">Generates streaming response  |  Calls tools if needed</text>

  <!-- Big transformation arrow -->
  <rect x="415" y="1192" width="130" height="22" rx="4" fill="#FFE8A0" stroke="#E8D070" stroke-width="1"/>
  <text x="480" y="1207" text-anchor="middle" fill="#5a4a10" font-size="10" font-weight="700">TRANSFORMS</text>

  <!-- Down arrow -->
  <line x1="480" y1="1214" x2="480" y2="1232" stroke="#333" stroke-width="2"/>
  <polygon points="474,1228 480,1238 486,1228" fill="#333"/>

  <!-- FRAME OUTPUT: LLMTextFrame (streamed tokens) -->
  <rect x="140" y="1240" width="680" height="62" rx="8" fill="#FFFCF0" stroke="#E8D070" stroke-width="1" filter="url(#glow)"/>
  <text x="158" y="1258" fill="#8a7a20" font-size="11" font-weight="700">LLMTextFrame</text>
  <text x="290" y="1258" fill="#999" font-size="9">(streamed token-by-token)</text>

  <!-- Streamed tokens -->
  <rect x="158" y="1266" width="46" height="20" rx="4" fill="white" stroke="#E8D070" stroke-width="1"/>
  <text x="181" y="1280" text-anchor="middle" fill="#5a4a10" font-size="9" font-weight="600">"Hey"</text>

  <line x1="208" y1="1276" x2="216" y2="1276" stroke="#ccc" stroke-width="1"/>
  <polygon points="214,1273 218,1276 214,1279" fill="#ccc"/>

  <rect x="220" y="1266" width="20" height="20" rx="4" fill="white" stroke="#E8D070" stroke-width="1"/>
  <text x="230" y="1280" text-anchor="middle" fill="#5a4a10" font-size="9" font-weight="600">","</text>

  <line x1="244" y1="1276" x2="252" y2="1276" stroke="#ccc" stroke-width="1"/>
  <polygon points="250,1273 254,1276 250,1279" fill="#ccc"/>

  <rect x="256" y="1266" width="28" height="20" rx="4" fill="white" stroke="#E8D070" stroke-width="1"/>
  <text x="270" y="1280" text-anchor="middle" fill="#5a4a10" font-size="9" font-weight="600">" I"</text>

  <line x1="288" y1="1276" x2="296" y2="1276" stroke="#ccc" stroke-width="1"/>
  <polygon points="294,1273 298,1276 294,1279" fill="#ccc"/>

  <rect x="300" y="1266" width="38" height="20" rx="4" fill="white" stroke="#E8D070" stroke-width="1"/>
  <text x="319" y="1280" text-anchor="middle" fill="#5a4a10" font-size="9" font-weight="600">"'m"</text>

  <line x1="342" y1="1276" x2="350" y2="1276" stroke="#ccc" stroke-width="1"/>
  <polygon points="348,1273 352,1276 348,1279" fill="#ccc"/>

  <rect x="354" y="1266" width="54" height="20" rx="4" fill="white" stroke="#E8D070" stroke-width="1"/>
  <text x="381" y="1280" text-anchor="middle" fill="#5a4a10" font-size="9" font-weight="600">" doing"</text>

  <line x1="412" y1="1276" x2="420" y2="1276" stroke="#ccc" stroke-width="1"/>
  <polygon points="418,1273 422,1276 418,1279" fill="#ccc"/>

  <rect x="424" y="1266" width="56" height="20" rx="4" fill="white" stroke="#E8D070" stroke-width="1"/>
  <text x="452" y="1280" text-anchor="middle" fill="#5a4a10" font-size="9" font-weight="600">" great"</text>

  <line x1="484" y1="1276" x2="492" y2="1276" stroke="#ccc" stroke-width="1"/>
  <polygon points="490,1273 494,1276 490,1279" fill="#ccc"/>

  <rect x="496" y="1266" width="20" height="20" rx="4" fill="white" stroke="#E8D070" stroke-width="1"/>
  <text x="506" y="1280" text-anchor="middle" fill="#5a4a10" font-size="9" font-weight="600">"!"</text>
  <text x="530" y="1280" fill="#999" font-size="8">... EndFrame</text>

  <!-- Down arrow -->
  <line x1="480" y1="1304" x2="480" y2="1330" stroke="#333" stroke-width="2"/>
  <polygon points="474,1326 480,1336 486,1326" fill="#333"/>


  <!-- ========================= -->
  <!-- STAGE 7: TTS SERVICE      -->
  <!-- ========================= -->
  <rect x="330" y="1340" width="300" height="44" rx="8" fill="#FFB8B8" stroke="#E89090" stroke-width="1.5" filter="url(#shadow)"/>
  <text x="480" y="1358" text-anchor="middle" fill="#5a1a1a" font-size="13" font-weight="700">7. TTS Service (ElevenLabs)</text>
  <text x="480" y="1374" text-anchor="middle" fill="#7a3a3a" font-size="9">Text-to-Speech  |  Low-latency streaming  |  Natural voice</text>

  <!-- Big transformation arrow -->
  <rect x="415" y="1388" width="130" height="22" rx="4" fill="#FFB8B8" stroke="#E89090" stroke-width="1"/>
  <text x="480" y="1403" text-anchor="middle" fill="#5a1a1a" font-size="10" font-weight="700">TRANSFORMS</text>

  <!-- Down arrow -->
  <line x1="480" y1="1410" x2="480" y2="1428" stroke="#333" stroke-width="2"/>
  <polygon points="474,1424 480,1434 486,1424" fill="#333"/>

  <!-- FRAME OUTPUT: TTSAudioRawFrame -->
  <rect x="140" y="1436" width="680" height="62" rx="8" fill="#FFF0F0" stroke="#E89090" stroke-width="1" filter="url(#glow)"/>
  <text x="158" y="1454" fill="#c05050" font-size="11" font-weight="700">TTSAudioRawFrame</text>
  <text x="330" y="1454" fill="#999" font-size="9">(synthesized audio chunks for the bot voice)</text>

  <!-- Audio frames with waveforms -->
  <rect x="158" y="1462" width="110" height="28" rx="5" fill="white" stroke="#E89090" stroke-width="1"/>
  <g stroke="#c05050" stroke-width="1.5" stroke-linecap="round" fill="none" transform="translate(166, 1466)">
    <line x1="0" y1="10" x2="0" y2="10"/>
    <line x1="4" y1="6" x2="4" y2="14"/>
    <line x1="8" y1="3" x2="8" y2="17"/>
    <line x1="12" y1="1" x2="12" y2="19"/>
    <line x1="16" y1="4" x2="16" y2="16"/>
    <line x1="20" y1="8" x2="20" y2="12"/>
  </g>
  <text x="200" y="1480" fill="#5a1a1a" font-size="9" font-weight="600">"Hey,"</text>

  <line x1="272" y1="1476" x2="282" y2="1476" stroke="#E89090" stroke-width="1.2"/>
  <polygon points="280,1473 284,1476 280,1479" fill="#E89090"/>

  <rect x="286" y="1462" width="130" height="28" rx="5" fill="white" stroke="#E89090" stroke-width="1"/>
  <g stroke="#c05050" stroke-width="1.5" stroke-linecap="round" fill="none" transform="translate(294, 1466)">
    <line x1="0" y1="10" x2="0" y2="10"/>
    <line x1="4" y1="7" x2="4" y2="13"/>
    <line x1="8" y1="3" x2="8" y2="17"/>
    <line x1="12" y1="1" x2="12" y2="19"/>
    <line x1="16" y1="2" x2="16" y2="18"/>
    <line x1="20" y1="5" x2="20" y2="15"/>
    <line x1="24" y1="8" x2="24" y2="12"/>
  </g>
  <text x="334" y="1480" fill="#5a1a1a" font-size="9" font-weight="600">"I'm doing"</text>

  <line x1="420" y1="1476" x2="430" y2="1476" stroke="#E89090" stroke-width="1.2"/>
  <polygon points="428,1473 432,1476 428,1479" fill="#E89090"/>

  <rect x="434" y="1462" width="120" height="28" rx="5" fill="white" stroke="#E89090" stroke-width="1"/>
  <g stroke="#c05050" stroke-width="1.5" stroke-linecap="round" fill="none" transform="translate(442, 1466)">
    <line x1="0" y1="10" x2="0" y2="10"/>
    <line x1="4" y1="6" x2="4" y2="14"/>
    <line x1="8" y1="2" x2="8" y2="18"/>
    <line x1="12" y1="1" x2="12" y2="19"/>
    <line x1="16" y1="3" x2="16" y2="17"/>
    <line x1="20" y1="5" x2="20" y2="15"/>
    <line x1="24" y1="3" x2="24" y2="17"/>
    <line x1="28" y1="6" x2="28" y2="14"/>
  </g>
  <text x="486" y="1480" fill="#5a1a1a" font-size="9" font-weight="600">"great!"</text>

  <text x="564" y="1480" fill="#999" font-size="8">... more chunks</text>

  <!-- Down arrow -->
  <line x1="480" y1="1500" x2="480" y2="1526" stroke="#333" stroke-width="2"/>
  <polygon points="474,1522 480,1532 486,1522" fill="#333"/>


  <!-- ========================= -->
  <!-- STAGE 8: TRANSPORT OUTPUT -->
  <!-- ========================= -->
  <rect x="330" y="1536" width="300" height="44" rx="8" fill="#B3D4FC" stroke="#7FB3E0" stroke-width="1.5" filter="url(#shadow)"/>
  <text x="480" y="1554" text-anchor="middle" fill="#1a3a5c" font-size="13" font-weight="700">8. Transport: Output</text>
  <text x="480" y="1570" text-anchor="middle" fill="#3a6a9c" font-size="9">Sends audio over WebSocket (Protobuf) to browser</text>

  <!-- Down arrow -->
  <line x1="480" y1="1580" x2="480" y2="1606" stroke="#333" stroke-width="2"/>
  <polygon points="474,1602 480,1612 486,1602" fill="#333"/>

  <!-- Final output -->
  <rect x="330" y="1616" width="300" height="36" rx="8" fill="#333" stroke="#555" stroke-width="1" filter="url(#shadow)"/>
  <text x="480" y="1639" text-anchor="middle" fill="white" font-size="13" font-weight="700">User hears: "Hey, I'm doing great!"</text>

  <!-- ========================= -->
  <!-- CONTEXT LOOP BACK ARROW   -->
  <!-- ========================= -->
  <path d="M 328 1164 L 80 1164 L 80 950 L 328 950" fill="none" stroke="#2a7a40" stroke-width="2" stroke-dasharray="6 3"/>
  <polygon points="324,943 336,950 324,957" fill="#2a7a40"/>
  <text x="66" y="1060" text-anchor="middle" fill="#2a7a40" font-size="9" font-weight="600" transform="rotate(-90, 66, 1060)">Context Aggregator: Assistant (saves response to history)</text>

  <!-- Footer -->
  <text x="480" y="1682" text-anchor="middle" fill="#aaa" font-size="10">RAG Voice Agent  |  Pipecat Framework  |  Complete Frame Flow</text>
</svg>
